<svg width="52" height="56" viewBox="0 0 52 56" fill="none" xmlns="http://www.w3.org/2000/svg">
<g clip-path="url(#clip0)">
<path d="M50.4306 7.71826H2.09254L1.04626 47.1549L52 46.0281V28.845L50.9537 28L52 27.1549V9.4084C52 8.47499 51.2973 7.71826 50.4306 7.71826Z" fill="#92FFCA"/>
<path d="M2.09256 45.1831V7.71826H1.56942C0.70268 7.71826 0 8.47499 0 9.4084V27.1549L0.796531 28L0 28.845V46.5915C0 47.5249 0.70268 48.2816 1.56942 48.2816H50.4306C51.2973 48.2816 52 47.5249 52 46.5915V46.0281H2.87726C2.44389 46.0281 2.09256 45.6498 2.09256 45.1831Z" fill="white"/>
<path d="M2.09257 28.8451H52V27.1549H2.09257L1.55185 28.0974L2.09257 28.8451Z" fill="#191C1C"/>
<path d="M0 27.1549H2.09255V28.8451H0V27.1549Z" fill="#92FFCA"/>
<path d="M13.4447 43.8986C13.0112 43.8986 12.66 43.5202 12.66 43.0535V12.9463C12.66 12.4796 13.0112 12.1012 13.4447 12.1012C13.8781 12.1012 14.2294 12.4796 14.2294 12.9463V43.0535C14.2294 43.5202 13.8781 43.8986 13.4447 43.8986ZM32.2777 43.6549C31.8442 43.6549 31.493 43.2765 31.493 42.8098V13.1901C31.493 12.7234 31.8442 12.345 32.2777 12.345C32.7111 12.345 33.0624 12.7234 33.0624 13.1901V42.8098C33.0624 43.2765 32.7111 43.6549 32.2777 43.6549ZM29.1388 40.9824C28.7054 40.9824 28.3541 40.6041 28.3541 40.1374V15.8624C28.3541 15.3957 28.7054 15.0174 29.1388 15.0174C29.5723 15.0174 29.9235 15.3957 29.9235 15.8624V40.1374C29.9235 40.6041 29.5723 40.9824 29.1388 40.9824ZM10.3058 39.99C9.87237 39.99 9.52113 39.6116 9.52113 39.1449V16.8549C9.52113 16.3882 9.87237 16.0098 10.3058 16.0098C10.7393 16.0098 11.0905 16.3882 11.0905 16.8549V39.1449C11.0905 39.6116 10.7393 39.99 10.3058 39.99ZM22.8612 37.624C22.4277 37.624 22.0765 37.2457 22.0765 36.7789V19.2209C22.0765 18.7542 22.4277 18.3758 22.8612 18.3758C23.2946 18.3758 23.6459 18.7542 23.6459 19.2209V36.7788C23.6459 37.2457 23.2946 37.624 22.8612 37.624ZM16.5835 36.5977C16.15 36.5977 15.7988 36.2193 15.7988 35.7526V20.2472C15.7988 19.7805 16.15 19.4022 16.5835 19.4022C17.017 19.4022 17.3682 19.7805 17.3682 20.2472V35.7526C17.3682 36.2193 17.017 36.5977 16.5835 36.5977ZM35.4165 34.4C34.983 34.4 34.6318 34.0217 34.6318 33.5549V22.4449C34.6318 21.9782 34.983 21.5998 35.4165 21.5998C35.85 21.5998 36.2012 21.9782 36.2012 22.4449V33.5549C36.2012 34.0217 35.85 34.4 35.4165 34.4ZM41.6942 32.9045C41.2607 32.9045 40.9095 32.5261 40.9095 32.0594V23.9403C40.9095 23.4736 41.2607 23.0952 41.6942 23.0952C42.1276 23.0952 42.4789 23.4736 42.4789 23.9403V32.0594C42.4789 32.5261 42.1276 32.9045 41.6942 32.9045ZM26 32.0502C25.5665 32.0502 25.2153 31.6718 25.2153 31.2051V24.7946C25.2153 24.3279 25.5665 23.9495 26 23.9495C26.4335 23.9495 26.7847 24.3279 26.7847 24.7946V31.2051C26.7847 31.6718 26.4335 32.0502 26 32.0502ZM38.5553 31.5653C38.1219 31.5653 37.7706 31.1869 37.7706 30.7202V25.2796C37.7706 24.8129 38.1219 24.4345 38.5553 24.4345C38.9888 24.4345 39.34 24.8129 39.34 25.2796V30.7202C39.34 31.1869 38.9888 31.5653 38.5553 31.5653ZM19.7223 31.4345C19.2889 31.4345 18.9376 31.0561 18.9376 30.5894V25.4104C18.9376 24.9437 19.2889 24.5653 19.7223 24.5653C20.1558 24.5653 20.507 24.9437 20.507 25.4104V30.5894C20.507 31.0561 20.1558 31.4345 19.7223 31.4345ZM7.16701 31.0905C6.73354 31.0905 6.3823 30.7121 6.3823 30.2454V25.7545C6.3823 25.2878 6.73354 24.9094 7.16701 24.9094C7.60048 24.9094 7.95172 25.2878 7.95172 25.7545V30.2454C7.95172 30.7121 7.60048 31.0905 7.16701 31.0905ZM4.02818 29.7969C3.5947 29.7969 3.24347 29.4185 3.24347 28.9518V27.048C3.24347 26.5813 3.5947 26.2029 4.02818 26.2029C4.46165 26.2029 4.81289 26.5813 4.81289 27.048V28.9518C4.81289 29.4185 4.46165 29.7969 4.02818 29.7969ZM47.9718 29.7313C47.5384 29.7313 47.1871 29.3529 47.1871 28.8862V27.1136C47.1871 26.6469 47.5384 26.2685 47.9718 26.2685C48.4053 26.2685 48.7565 26.6469 48.7565 27.1136V28.8862C48.7565 29.3529 48.4053 29.7313 47.9718 29.7313ZM44.833 29.7313C44.3995 29.7313 44.0483 29.3529 44.0483 28.8862V27.1136C44.0483 26.6469 44.3995 26.2685 44.833 26.2685C45.2665 26.2685 45.6177 26.6469 45.6177 27.1136V28.8862C45.6177 29.3529 45.2665 29.7313 44.833 29.7313Z" fill="#191C1C"/>
</g>
<defs>
<clipPath id="clip0">
<rect width="52" height="56" fill="white"/>
</clipPath>
</defs>
</svg>
