<svg width="32" height="32" viewBox="0 0 32 32" fill="none" xmlns="http://www.w3.org/2000/svg">
<path fill-rule="evenodd" clip-rule="evenodd" d="M23.999 17.9871V13.9909H16V9.99062H23.999V5.99638L32 11.9928L23.999 17.9891V17.9871ZM20.0005 23.9835H11.9995V5.99438L4.0025 1.99813H20.0025V7.9945H22.0038V1.99813C22.0038 0.898056 21.1032 0 20.0025 0H1.99925C1.46934 0.00105711 0.961438 0.211913 0.586735 0.586405C0.212032 0.960897 0.00105771 1.46851 0 1.99813L0 24.7435C0 25.5236 0.440275 26.2036 1.10069 26.5637L11.9995 32V25.9836H20.0005C21.1012 25.9836 22.0018 25.0836 22.0018 23.9835V15.991H20.0005V23.9875V23.9835Z" fill="black"/>
</svg>
