<svg width="35" height="35" viewBox="0 0 35 35" fill="none" xmlns="http://www.w3.org/2000/svg">
<path d="M1.5 7.75H33.5C34.325 7.75 35 7.075 35 6.25C35 5.425 34.325 4.75 33.5 4.75H1.5C0.674999 4.75 0 5.425 0 6.25C0 7.075 0.674999 7.75 1.5 7.75Z" fill="black"/>
<path d="M1.5 19H33.5C34.325 19 35 18.325 35 17.5C35 16.675 34.325 16 33.5 16H1.5C0.674999 16 0 16.675 0 17.5C0 18.325 0.674999 19 1.5 19Z" fill="black"/>
<path d="M1.5 30.25H33.5C34.325 30.25 35 29.575 35 28.75C35 27.925 34.325 27.25 33.5 27.25H1.5C0.674999 27.25 0 27.925 0 28.75C0 29.575 0.674999 30.25 1.5 30.25Z" fill="black"/>
</svg>
