<svg width="35" height="35" viewBox="0 0 35 35" fill="none" xmlns="http://www.w3.org/2000/svg">
<path d="M1.81349 20.7547C1.29909 15.2178 3.66391 10.2023 7.58624 7.01589C9.11516 5.77275 11.4014 6.83728 11.4014 8.80201C11.4014 9.5236 11.0585 10.188 10.5012 10.6381C7.72198 12.9029 6.05017 16.4752 6.45741 20.419C6.9861 25.5558 11.1013 29.7139 16.2311 30.2855C22.9255 31.0357 28.6125 25.7916 28.6125 19.2473C28.6125 15.775 27.005 12.6672 24.4972 10.631C23.94 10.1809 23.6042 9.51646 23.6042 8.80201C23.6042 6.85871 25.8547 5.75846 27.3693 6.97302C30.9559 9.86654 33.2564 14.289 33.2564 19.2473C33.2564 28.3136 25.5546 35.6224 16.3454 34.958C8.72936 34.4221 2.5208 28.3565 1.81349 20.7547ZM17.4956 0C16.2096 0 15.1737 1.0431 15.1737 2.32196V13.0173C15.1737 14.3033 16.2168 15.3392 17.4956 15.3392C18.7745 15.3392 19.8176 14.2961 19.8176 13.0173V2.32196C19.8176 1.0431 18.7817 0 17.4956 0Z" fill="black"/>
</svg>
