<svg width="32" height="32" viewBox="0 0 32 32" fill="none" xmlns="http://www.w3.org/2000/svg">
<g clip-path="url(#clip0)">
<path d="M27.0656 7.99284C25.3751 6.01634 23.1871 4.52748 20.7281 3.68033L28.6875 2.03596C28.729 2.02733 28.7684 2.0106 28.8034 1.98673C28.8385 1.96286 28.8684 1.93232 28.8917 1.89685C28.9149 1.86139 28.9309 1.82169 28.9387 1.78003C28.9466 1.73837 28.9462 1.69558 28.9375 1.65408L28.65 0.258459C28.6323 0.174669 28.5821 0.101316 28.5104 0.0544601C28.4387 0.00760416 28.3513 -0.00893676 28.2675 0.00845894L16.75 2.38908C16.7064 2.39805 16.6652 2.4159 16.6289 2.44153C16.5926 2.46715 16.5619 2.5 16.5388 2.53801C16.5158 2.57603 16.5008 2.61839 16.4949 2.66245C16.489 2.70651 16.4922 2.75133 16.5044 2.79408L19.7156 14.1066C19.7389 14.189 19.794 14.2589 19.8688 14.3007C19.9436 14.3426 20.0319 14.353 20.1144 14.3297L21.4862 13.9385C21.5688 13.915 21.6386 13.8598 21.6804 13.7849C21.7223 13.7101 21.7327 13.6216 21.7094 13.5391L19.4056 5.43346C22.0197 6.17564 24.3205 7.75011 25.9589 9.91807C27.5973 12.086 28.4839 14.7292 28.4844 17.4466C28.4844 24.331 22.8837 29.931 16 29.931C9.11624 29.931 3.51562 24.331 3.51562 17.4466C3.51364 14.4843 4.56702 11.6182 6.48687 9.36221C6.54159 9.29808 6.56903 9.21508 6.56331 9.13097C6.55758 9.04686 6.51915 8.96833 6.45624 8.91221L5.39374 7.96283C5.36162 7.93407 5.32407 7.91202 5.28331 7.89796C5.24255 7.88391 5.19939 7.87814 5.15636 7.88099C5.11334 7.88384 5.07132 7.89526 5.03277 7.91457C4.99422 7.93389 4.95991 7.96071 4.93187 7.99346C3.12516 10.1083 1.96227 12.6965 1.58089 15.4517C1.19951 18.2069 1.61561 21.0137 2.77993 23.5397C3.94425 26.0658 5.80801 28.2053 8.15056 29.705C10.4931 31.2046 13.2163 32.0017 15.9978 32.0017C18.7793 32.0017 21.5025 31.2046 23.845 29.705C26.1876 28.2053 28.0514 26.0658 29.2157 23.5397C30.38 21.0137 30.7961 18.2069 30.4147 15.4517C30.0333 12.6965 28.8704 10.1083 27.0637 7.99346L27.0656 7.99284Z" fill="white"/>
</g>
<defs>
<clipPath id="clip0">
<rect width="32" height="32" fill="white"/>
</clipPath>
</defs>
</svg>
