<svg width="35" height="35" viewBox="0 0 35 35" fill="none" xmlns="http://www.w3.org/2000/svg">
<path d="M19.9208 5.5417C20.0655 5.68478 20.1803 5.85512 20.2586 6.04286C20.337 6.2306 20.3773 6.43202 20.3773 6.63546C20.3773 6.83889 20.337 7.04031 20.2586 7.22805C20.1803 7.41579 20.0655 7.58613 19.9208 7.72921L10.1354 17.5L19.9208 27.2855C20.0655 27.4285 20.1803 27.5989 20.2586 27.7866C20.337 27.9744 20.3773 28.1758 20.3773 28.3792C20.3773 28.5826 20.337 28.7841 20.2586 28.9718C20.1803 29.1595 20.0655 29.3299 19.9208 29.473V29.473C19.7778 29.6176 19.6074 29.7324 19.4197 29.8107C19.2319 29.8891 19.0305 29.9295 18.8271 29.9295C18.6236 29.9295 18.4222 29.8891 18.2345 29.8107C18.0467 29.7324 17.8764 29.6176 17.7333 29.473L7.10938 18.8198C6.75895 18.4685 6.56216 17.9926 6.56216 17.4964C6.56216 17.0002 6.75895 16.5243 7.10938 16.173L17.7479 5.5417C18.0363 5.25406 18.427 5.09253 18.8344 5.09253C19.2417 5.09253 19.6324 5.25406 19.9208 5.5417V5.5417Z" fill="black"/>
</svg>
