<svg width="35" height="36" viewBox="0 0 35 36" fill="none" xmlns="http://www.w3.org/2000/svg">
<g clip-path="url(#clip0)">
<path d="M18.5983 36H16.4017C14.6251 36 13.1796 34.5133 13.1796 32.686V31.9216C12.4243 31.6734 11.6905 31.3601 10.9855 30.9848L10.4588 31.5265C9.18333 32.8401 7.14014 32.8016 5.90167 31.526L4.34916 29.9292C3.10851 28.6545 3.07282 26.5537 4.34957 25.2418L4.8758 24.7006C4.51097 23.9754 4.20643 23.2208 3.96505 22.4438H3.22198C1.44546 22.4438 0 20.9571 0 19.1297V16.8703C0 15.0429 1.44546 13.5563 3.22205 13.5563H3.96512C4.20649 12.7793 4.51104 12.0246 4.87587 11.2994L4.34923 10.7578C3.07323 9.44677 3.10844 7.34569 4.34964 6.07043L5.90229 4.47349C7.14362 3.19493 9.18634 3.16301 10.4594 4.47391L10.9856 5.01511C11.6905 4.63992 12.4244 4.32661 13.1797 4.07834V3.31404C13.1797 1.48669 14.6251 0 16.4017 0H18.5983C20.3749 0 21.8203 1.48669 21.8203 3.31404V4.07841C22.5756 4.32661 23.3095 4.63992 24.0144 5.01518L24.5411 4.47349C25.8166 3.15991 27.8598 3.19845 29.0983 4.47398L30.6508 6.07078C31.8914 7.34548 31.9271 9.44634 30.6504 10.7582L30.1241 11.2994C30.489 12.0246 30.7935 12.7792 31.0349 13.5563H31.7779C33.5545 13.5563 35 15.0429 35 16.8703V19.1297C35 20.9571 33.5545 22.4438 31.7779 22.4438H31.0349C30.7935 23.2207 30.489 23.9754 30.1241 24.7006L30.6508 25.2423C31.9268 26.5533 31.8916 28.6544 30.6504 29.9296L29.0977 31.5266C27.8564 32.8051 25.8137 32.8371 24.5406 31.5262L24.0144 30.985C23.3095 31.3601 22.5756 31.6735 21.8203 31.9217V32.6861C21.8203 34.5133 20.3749 36 18.5983 36ZM11.3283 28.7698C12.3077 29.3655 13.3618 29.8156 14.4613 30.1075C14.9141 30.2276 15.2305 30.6477 15.2305 31.1287V32.686C15.2305 33.3502 15.7559 33.8906 16.4017 33.8906H18.5983C19.2441 33.8906 19.7696 33.3502 19.7696 32.686V31.1287C19.7696 30.6477 20.086 30.2276 20.5388 30.1075C21.6383 29.8156 22.6924 29.3655 23.6718 28.7698C24.0747 28.5247 24.5878 28.5913 24.9188 28.9318L25.9913 30.035C26.4536 30.5111 27.1962 30.5001 27.6472 30.0355L29.2008 28.4375C29.6507 27.9753 29.6658 27.2114 29.2012 26.7342L28.1283 25.6307C27.7973 25.2902 27.7325 24.7624 27.9707 24.348C28.55 23.3407 28.9875 22.2565 29.2712 21.1255C29.3881 20.6598 29.7965 20.3344 30.2641 20.3344H31.778C32.4238 20.3344 32.9493 19.794 32.9493 19.1298V16.8704C32.9493 16.2061 32.4238 15.6657 31.778 15.6657H30.2641C29.7964 15.6657 29.3881 15.3403 29.2712 14.8746C28.9875 13.7436 28.5499 12.6594 27.9707 11.6521C27.7325 11.2377 27.7973 10.7099 28.1283 10.3695L29.2008 9.26634C29.6644 8.79005 29.6523 8.02645 29.2012 7.56302L27.6477 5.96517C27.1975 5.50139 26.4548 5.48782 25.9917 5.96475L24.9189 7.0683C24.5879 7.40883 24.0747 7.47548 23.6718 7.23038C22.6924 6.63462 21.6383 6.18455 20.5388 5.89268C20.086 5.77252 19.7697 5.35247 19.7697 4.87146V3.31404C19.7697 2.6498 19.2442 2.10938 18.5984 2.10938H16.4018C15.756 2.10938 15.2305 2.6498 15.2305 3.31404V4.87132C15.2305 5.35233 14.9142 5.77238 14.4614 5.89254C13.3619 6.18441 12.3078 6.63448 11.3284 7.23023C10.9253 7.47527 10.4123 7.40862 10.0813 7.06816L9.00888 5.96503C8.54649 5.48887 7.80391 5.49991 7.35294 5.96454L5.79934 7.56246C5.34939 8.0247 5.33436 8.7885 5.79893 9.26578L6.87183 10.3693C7.20282 10.7098 7.26763 11.2376 7.02939 11.652C6.45019 12.6593 6.01269 13.7435 5.72893 14.8745C5.61203 15.3402 5.20365 15.6656 4.73607 15.6656H3.22205C2.57626 15.6656 2.05078 16.206 2.05078 16.8703V19.1297C2.05078 19.794 2.57626 20.3344 3.22205 20.3344H4.73601C5.20365 20.3344 5.61196 20.6598 5.72886 21.1255C6.01262 22.2564 6.45019 23.3407 7.02933 24.348C7.26756 24.7624 7.20275 25.2901 6.87176 25.6306L5.79927 26.7337C5.33565 27.21 5.34775 27.9736 5.79886 28.437L7.35232 30.0349C7.80261 30.4987 8.54526 30.5123 9.00833 30.0353L10.0812 28.9318C10.3251 28.681 10.8325 28.4681 11.3283 28.7698Z" fill="black"/>
<path d="M17.5 25.8326C13.3009 25.8326 9.88477 22.3188 9.88477 17.9998C9.88477 13.6808 13.3009 10.167 17.5 10.167C21.6991 10.167 25.1152 13.6808 25.1152 17.9998C25.1152 22.3188 21.6991 25.8326 17.5 25.8326ZM17.5 12.2764C14.4317 12.2764 11.9355 14.8439 11.9355 17.9998C11.9355 21.1557 14.4318 23.7232 17.5 23.7232C20.5682 23.7232 23.0645 21.1557 23.0645 17.9998C23.0645 14.8439 20.5683 12.2764 17.5 12.2764Z" fill="black"/>
</g>
<defs>
<clipPath id="clip0">
<rect width="35" height="36" fill="white"/>
</clipPath>
</defs>
</svg>
