<svg width="32" height="32" viewBox="0 0 32 32" fill="none" xmlns="http://www.w3.org/2000/svg">
<path d="M26.1776 28.0599C25.8163 28.0599 25.4551 27.9221 25.1794 27.6465C24.6281 27.0952 24.6281 26.2014 25.1794 25.65C27.7569 23.0723 29.1765 19.6454 29.1765 16C29.1765 12.3548 27.7569 8.92773 25.1794 6.35008C24.6281 5.79873 24.6281 4.90484 25.1794 4.35355C25.7307 3.80226 26.6245 3.80226 27.1759 4.35355C30.2868 7.46449 32 11.6006 32 16.0001C32 20.3995 30.2868 24.5356 27.1759 27.6465C26.9003 27.9221 26.5389 28.0599 26.1776 28.0599ZM21.1627 25.3979C20.8012 25.3979 20.4402 25.26 20.1644 24.9845C19.6131 24.4332 19.6131 23.5394 20.1644 22.988C24.0175 19.1348 24.0175 12.8654 20.1644 9.01226C19.6131 8.4609 19.6131 7.56702 20.1644 7.01573C20.7156 6.46449 21.6096 6.46443 22.1608 7.01573C24.5606 9.41537 25.8824 12.6061 25.8824 16C25.8824 19.3938 24.5606 22.5845 22.1608 24.9844C21.8852 25.26 21.5239 25.3979 21.1627 25.3979ZM16.1476 22.7358C15.7863 22.7358 15.4251 22.598 15.1494 22.3224C14.598 21.771 14.598 20.8773 15.1494 20.3259C17.5347 17.9407 17.5347 14.0595 15.1494 11.6743C14.598 11.1229 14.598 10.229 15.1494 9.67773C15.7007 9.12643 16.5945 9.12643 17.1459 9.67773C20.632 13.1639 20.632 18.8363 17.1459 22.3225C16.8702 22.598 16.5089 22.7358 16.1476 22.7358ZM11.8039 3.2549C12.5588 2.49996 13.1765 2.75584 13.1765 3.82349V28.1764C13.1765 29.2441 12.5588 29.5 11.8039 28.745L4.70588 21.647H0V10.3529H4.70588L11.8039 3.2549Z" fill="#1AC0E4"/>
</svg>
