<svg width="46" height="32" viewBox="0 0 46 32" fill="none" xmlns="http://www.w3.org/2000/svg">
<path d="M10.2012 31.7974C9.76773 31.7974 9.41653 31.419 9.41653 30.9523V0.845099C9.41653 0.378399 9.76773 0 10.2012 0C10.6346 0 10.9859 0.378399 10.9859 0.845099V30.9523C10.9859 31.419 10.6346 31.7974 10.2012 31.7974ZM29.0342 31.5537C28.6007 31.5537 28.2495 31.1753 28.2495 30.7086V1.0889C28.2495 0.6222 28.6007 0.2438 29.0342 0.2438C29.4676 0.2438 29.8189 0.6222 29.8189 1.0889V30.7086C29.8189 31.1753 29.4676 31.5537 29.0342 31.5537ZM25.8953 28.8812C25.4619 28.8812 25.1106 28.5029 25.1106 28.0362V3.7612C25.1106 3.2945 25.4619 2.9162 25.8953 2.9162C26.3288 2.9162 26.68 3.2945 26.68 3.7612V28.0362C26.68 28.5029 26.3288 28.8812 25.8953 28.8812ZM7.06233 27.8888C6.6289 27.8888 6.27766 27.5104 6.27766 27.0437V4.7537C6.27766 4.287 6.6289 3.9086 7.06233 3.9086C7.49583 3.9086 7.84703 4.287 7.84703 4.7537V27.0437C7.84703 27.5104 7.49583 27.8888 7.06233 27.8888ZM19.6177 25.5228C19.1842 25.5228 18.833 25.1445 18.833 24.6777V7.1197C18.833 6.653 19.1842 6.2746 19.6177 6.2746C20.0511 6.2746 20.4024 6.653 20.4024 7.1197V24.6776C20.4024 25.1445 20.0511 25.5228 19.6177 25.5228ZM13.34 24.4965C12.9065 24.4965 12.5553 24.1181 12.5553 23.6514V8.146C12.5553 7.6793 12.9065 7.301 13.34 7.301C13.7735 7.301 14.1247 7.6793 14.1247 8.146V23.6514C14.1247 24.1181 13.7735 24.4965 13.34 24.4965ZM32.173 22.2988C31.7395 22.2988 31.3883 21.9205 31.3883 21.4537V10.3437C31.3883 9.877 31.7395 9.4986 32.173 9.4986C32.6065 9.4986 32.9577 9.877 32.9577 10.3437V21.4537C32.9577 21.9205 32.6065 22.2988 32.173 22.2988ZM38.4507 20.8033C38.0172 20.8033 37.666 20.4249 37.666 19.9582V11.8391C37.666 11.3724 38.0172 10.994 38.4507 10.994C38.8841 10.994 39.2354 11.3724 39.2354 11.8391V19.9582C39.2354 20.4249 38.8841 20.8033 38.4507 20.8033ZM22.7565 19.949C22.323 19.949 21.9718 19.5706 21.9718 19.1039V12.6934C21.9718 12.2267 22.323 11.8483 22.7565 11.8483C23.19 11.8483 23.5412 12.2267 23.5412 12.6934V19.1039C23.5412 19.5706 23.19 19.949 22.7565 19.949ZM35.3118 19.4641C34.8784 19.4641 34.5271 19.0857 34.5271 18.619V13.1784C34.5271 12.7117 34.8784 12.3333 35.3118 12.3333C35.7453 12.3333 36.0965 12.7117 36.0965 13.1784V18.619C36.0965 19.0857 35.7453 19.4641 35.3118 19.4641ZM16.4788 19.3333C16.0454 19.3333 15.6941 18.9549 15.6941 18.4882V13.3092C15.6941 12.8425 16.0454 12.4641 16.4788 12.4641C16.9123 12.4641 17.2635 12.8425 17.2635 13.3092V18.4882C17.2635 18.9549 16.9123 19.3333 16.4788 19.3333ZM3.92354 18.9893C3.49007 18.9893 3.13883 18.6109 3.13883 18.1442V13.6533C3.13883 13.1866 3.49007 12.8082 3.92354 12.8082C4.35701 12.8082 4.70825 13.1866 4.70825 13.6533V18.1442C4.70825 18.6109 4.35701 18.9893 3.92354 18.9893ZM0.78471 17.6957C0.35123 17.6957 0 17.3173 0 16.8506V14.9468C0 14.4801 0.35123 14.1017 0.78471 14.1017C1.21818 14.1017 1.56942 14.4801 1.56942 14.9468V16.8506C1.56942 17.3173 1.21818 17.6957 0.78471 17.6957ZM44.7283 17.6301C44.2949 17.6301 43.9436 17.2517 43.9436 16.785V15.0124C43.9436 14.5457 44.2949 14.1673 44.7283 14.1673C45.1618 14.1673 45.513 14.5457 45.513 15.0124V16.785C45.513 17.2517 45.1618 17.6301 44.7283 17.6301ZM41.5895 17.6301C41.156 17.6301 40.8048 17.2517 40.8048 16.785V15.0124C40.8048 14.5457 41.156 14.1673 41.5895 14.1673C42.023 14.1673 42.3742 14.5457 42.3742 15.0124V16.785C42.3742 17.2517 42.023 17.6301 41.5895 17.6301Z" fill="#191C1C"/>
</svg>
